:FULLY-SPECIFIED
:FORCE-ALL-JOINTS-BE-3DOF
:DEGREES
79
root 0.610507 18.3697 5.79218 4.11242 1.64588 -1.27011
lfemur -14.8374 -4.39093 -16.6588
ltibia 31.507 0 0
lfoot 3.90146 -5.23543 0
ltoes -24.1682 0 0
rfemur -9.09897 -0.285357 26.0939
rtibia 60.4188 0 0
rfoot 22.2796 -5.24678 0
rtoes 15.5183 0 0
lowerback 14.9808 -1.1358 0.586446
upperback 0.928506 -1.63142 -0.775639
thorax -7.00142 -0.775715 -0.700648
lowerneck -6.73257 0.0448653 -1.23974
upperneck -7.22266 0.189759 1.56707
head -1.12518 0.112465 0.682443
lclavicle -5.53552e-15 9.59295e-15 0
lhumerus -35.9143 -9.20723 87.856
lradius 110.056 0 0
lwrist 27.7587 0 0
lhand -37.9242 8.75618 0
lfingers 7.12502 0 0
lthumb -10.9661 38.4494 0
rclavicle -5.53552e-15 9.59295e-15 0
rhumerus -45.3924 13.9112 -85.4333
rradius 94.6008 0 0
rwrist -2.36729 0 0
rhand -43.9762 35.7156 0
rfingers 7.12502 0 0
rthumb -16.7983 6.42255 0
80
root 0.609968 18.3357 6.31208 4.0212 1.95675 -0.878706
lfemur -13.2632 -4.17852 -17.3331
ltibia 31.1655 0 0
lfoot 3.42833 -5.32432 0
ltoes -24.6668 0 0
rfemur -11.3029 -0.851902 25.5256
rtibia 63.1546 0 0
rfoot 21.5837 -5.36545 0
rtoes 15.2544 0 0
lowerback 15.1219 -1.30526 0.146129
upperback 0.939903 -1.9343 -0.858321
thorax -7.06615 -0.910154 -0.476925
lowerneck -6.66222 0.0961348 -1.27419
upperneck -7.27645 0.260345 1.58503
head -1.15468 0.147959 0.694765
lclavicle -5.22612e-15 1.04907e-14 0
lhumerus -34.247 -9.57009 87.6731
lradius 110.43 0 0
lwrist 27.8691 0 0
lhand -37.9514 8.61871 0
lfingers 7.12502 0 0
lthumb -10.9923 38.3105 0
rclavicle -5.22612e-15 1.04907e-14 0
rhumerus -46.3295 13.2491 -85.2684
rradius 93.5829 0 0
rwrist -2.40862 0 0
rhand -43.996 35.6854 0
rfingers 7.12502 0 0
rthumb -16.8173 6.39394 0
81
root 0.60943 18.3018 6.83197 3.92998 2.26762 -0.487307
lfemur -11.6891 -3.96612 -18.0074
ltibia 30.824 0 0
lfoot 2.9552 -5.41322 0
ltoes -25.1655 0 0
rfemur -13.5068 -1.41845 24.9572
rtibia 65.8903 0 0
rfoot 20.8878 -5.48412 0
rtoes 14.9905 0 0
lowerback 15.263 -1.47472 -0.294188
upperback 0.951301 -2.23717 -0.941002
thorax -7.13088 -1.04459 -0.253202
lowerneck -6.59186 0.147404 -1.30864
upperneck -7.33024 0.330931 1.60299
head -1.18418 0.183453 0.707088
lclavicle -4.91672e-15 1.13884e-14 0
lhumerus -32.5798 -9.93295 87.4901
lradius 110.803 0 0
lwrist 27.9795 0 0
lhand -37.9785 8.48124 0
lfingers 7.12502 0 0
lthumb -11.0185 38.1717 0
rclavicle -4.91672e-15 1.13884e-14 0
rhumerus -47.2666 12.5871 -85.1035
rradius 92.565 0 0
rwrist -2.44995 0 0
rhand -44.0157 35.6552 0
rfingers 7.12502 0 0
rthumb -16.8363 6.36533 0
82
root 0.608891 18.2678 7.35187 3.83877 2.57849 -0.0959084
lfemur -10.115 -3.75372 -18.6816
ltibia 30.4824 0 0
lfoot 2.48207 -5.50211 0
ltoes -25.6641 0 0
rfemur -15.7108 -1.98499 24.3889
rtibia 68.6261 0 0
rfoot 20.1919 -5.60278 0
rtoes 14.7266 0 0
lowerback 15.4041 -1.64418 -0.734505
upperback 0.962699 -2.54005 -1.02368
thorax -7.19562 -1.17903 -0.0294787
lowerneck -6.52151 0.198674 -1.34308
upperneck -7.38402 0.401517 1.62095
head -1.21368 0.218947 0.71941
lclavicle -4.60732e-15 1.22862e-14 0
lhumerus -30.9125 -10.2958 87.3072
lradius 111.176 0 0
lwrist 28.0899 0 0
lhand -38.0057 8.34377 0
lfingers 7.12502 0 0
lthumb -11.0447 38.0328 0
rclavicle -4.60732e-15 1.22862e-14 0
rhumerus -48.2038 11.925 -84.9386
rradius 91.5471 0 0
rwrist -2.49127 0 0
rhand -44.0355 35.625 0
rfingers 7.12502 0 0
rthumb -16.8554 6.33673 0
83
root 0.608353 18.2339 7.87176 3.74755 2.88936 0.295491
lfemur -8.54082 -3.54131 -19.3559
ltibia 30.1409 0 0
lfoot 2.00895 -5.591 0
ltoes -26.1627 0 0
rfemur -17.9147 -2.55154 23.8206
rtibia 71.3618 0 0
rfoot 19.496 -5.72145 0
rtoes 14.4627 0 0
lowerback 15.5452 -1.81364 -1.17482
upperback 0.974096 -2.84293 -1.10636
thorax -7.26035 -1.31347 0.194245
lowerneck -6.45115 0.249943 -1.37753
upperneck -7.43781 0.472103 1.63891
head -1.24318 0.254442 0.731732
lclavicle -4.29792e-15 1.31839e-14 0
lhumerus -29.2453 -10.6587 87.1242
lradius 111.55 0 0
lwrist 28.2003 0 0
lhand -38.0329 8.2063 0
lfingers 7.12502 0 0
lthumb -11.0709 37.8939 0
rclavicle -4.29792e-15 1.31839e-14 0
rhumerus -49.1409 11.263 -84.7737
rradius 90.5293 0 0
rwrist -2.5326 0 0
rhand -44.0553 35.5947 0
rfingers 7.12502 0 0
rthumb -16.8744 6.30812 0
84
root 0.607815 18.2 8.39165 3.65633 3.20023 0.68689
lfemur -6.96669 -3.32891 -20.0301
ltibia 29.7994 0 0
lfoot 1.53582 -5.67989 0
ltoes -26.6614 0 0
rfemur -20.1186 -3.11808 23.2523
rtibia 74.0975 0 0
rfoot 18.8001 -5.84012 0
rtoes 14.1988 0 0
lowerback 15.6863 -1.9831 -1.61514
upperback 0.985494 -3.14581 -1.18905
thorax -7.32508 -1.44791 0.417968
lowerneck -6.3808 0.301213 -1.41198
upperneck -7.4916 0.542689 1.65687
head -1.27268 0.289936 0.744054
lclavicle -3.98852e-15 1.40816e-14 0
lhumerus -27.578 -11.0215 86.9412
lradius 111.923 0 0
lwrist 28.3107 0 0
lhand -38.06 8.06883 0
lfingers 7.12502 0 0
lthumb -11.0971 37.7551 0
rclavicle -3.98852e-15 1.40816e-14 0
rhumerus -50.078 10.6009 -84.6088
rradius 89.5114 0 0
rwrist -2.57393 0 0
rhand -44.075 35.5645 0
rfingers 7.12502 0 0
rthumb -16.8934 6.27951 0
85
root 0.607276 18.166 8.91155 3.56511 3.5111 1.07829
lfemur -5.39255 -3.1165 -20.7044
ltibia 29.4579 0 0
lfoot 1.06269 -5.76879 0
ltoes -27.16 0 0
rfemur -22.3226 -3.68463 22.6839
rtibia 76.8333 0 0
rfoot 18.1043 -5.95878 0
rtoes 13.9349 0 0
lowerback 15.8274 -2.15256 -2.05546
upperback 0.996891 -3.44868 -1.27173
thorax -7.38981 -1.58235 0.641691
lowerneck -6.31044 0.352482 -1.44642
upperneck -7.54539 0.613275 1.67482
head -1.30218 0.32543 0.756377
lclavicle -3.67912e-15 1.49794e-14 0
lhumerus -25.9108 -11.3844 86.7583
lradius 112.297 0 0
lwrist 28.4211 0 0
lhand -38.0872 7.93136 0
lfingers 7.12502 0 0
lthumb -11.1233 37.6162 0
rclavicle -3.67912e-15 1.49794e-14 0
rhumerus -51.0151 9.93884 -84.4439
rradius 88.4935 0 0
rwrist -2.61525 0 0
rhand -44.0948 35.5343 0
rfingers 7.12502 0 0
rthumb -16.9124 6.2509 0
86
root 0.606738 18.1321 9.43144 3.4739 3.82197 1.46969
lfemur -3.81842 -2.9041 -21.3787
ltibia 29.1163 0 0
lfoot 0.589562 -5.85768 0
ltoes -27.6587 0 0
rfemur -24.5265 -4.25117 22.1156
rtibia 79.569 0 0
rfoot 17.4084 -6.07745 0
rtoes 13.671 0 0
lowerback 15.9685 -2.32202 -2.49577
upperback 1.00829 -3.75156 -1.35441
thorax -7.45455 -1.71679 0.865414
lowerneck -6.24009 0.403752 -1.48087
upperneck -7.59917 0.683861 1.69278
head -1.33168 0.360924 0.768699
lclavicle -3.36972e-15 1.58771e-14 0
lhumerus -24.2435 -11.7472 86.5753
lradius 112.67 0 0
lwrist 28.5315 0 0
lhand -38.1144 7.79389 0
lfingers 7.12502 0 0
lthumb -11.1495 37.4774 0
rclavicle -3.36972e-15 1.58771e-14 0
rhumerus -51.9523 9.27678 -84.279
rradius 87.4756 0 0
rwrist -2.65658 0 0
rhand -44.1145 35.5041 0
rfingers 7.12502 0 0
rthumb -16.9314 6.22229 0
87
root 0.606199 18.0981 9.95134 3.38268 4.13284 1.86109
lfemur -2.24429 -2.6917 -22.0529
ltibia 28.7748 0 0
lfoot 0.116434 -5.94657 0
ltoes -28.1573 0 0
rfemur -26.7305 -4.81772 21.5473
rtibia 82.3048 0 0
rfoot 16.7125 -6.19611 0
rtoes 13.4071 0 0
lowerback 16.1095 -2.49148 -2.93609
upperback 1.01969 -4.05444 -1.43709
thorax -7.51928 -1.85123 1.08914
lowerneck -6.16973 0.455021 -1.51532
upperneck -7.65296 0.754447 1.71074
head -1.36118 0.396418 0.781021
lclavicle -3.06032e-15 1.67748e-14 0
lhumerus -22.5763 -12.1101 86.3924
lradius 113.043 0 0
lwrist 28.6419 0 0
lhand -38.1415 7.65642 0
lfingers 7.12502 0 0
lthumb -11.1758 37.3385 0
rclavicle -3.06032e-15 1.67748e-14 0
rhumerus -52.8894 8.61472 -84.1141
rradius 86.4577 0 0
rwrist -2.6979 0 0
rhand -44.1343 35.4739 0
rfingers 7.12502 0 0
rthumb -16.9505 6.19369 0
88
root 0.605661 18.0642 10.4712 3.29146 4.44371 2.25249
lfemur -0.670153 -2.47929 -22.7272
ltibia 28.4333 0 0
lfoot -0.356694 -6.03546 0
ltoes -28.6559 0 0
rfemur -28.9344 -5.38426 20.979
rtibia 85.0405 0 0
rfoot 16.0166 -6.31478 0
rtoes 13.1432 0 0
lowerback 16.2506 -2.66094 -3.37641
upperback 1.03108 -4.35732 -1.51977
thorax -7.58401 -1.98567 1.31286
lowerneck -6.09938 0.506291 -1.54977
upperneck -7.70675 0.825033 1.7287
head -1.39068 0.431912 0.793343
lclavicle -2.75093e-15 1.76726e-14 0
lhumerus -20.909 -12.473 86.2094
lradius 113.417 0 0
lwrist 28.7523 0 0
lhand -38.1687 7.51895 0
lfingers 7.12502 0 0
lthumb -11.202 37.1996 0
rclavicle -2.75093e-15 1.76726e-14 0
rhumerus -53.8265 7.95266 -83.9492
rradius 85.4398 0 0
rwrist -2.73923 0 0
rhand -44.1541 35.4436 0
rfingers 7.12502 0 0
rthumb -16.9695 6.16508 0
89
root 0.605122 18.0302 10.9911 3.20025 4.75458 2.64388
lfemur 0.903981 -2.26689 -23.4015
ltibia 28.0917 0 0
lfoot -0.829821 -6.12436 0
ltoes -29.1546 0 0
rfemur -31.1383 -5.95081 20.4106
rtibia 87.7763 0 0
rfoot 15.3207 -6.43345 0
rtoes 12.8793 0 0
lowerback 16.3917 -2.83039 -3.81672
upperback 1.04248 -4.66019 -1.60245
thorax -7.64875 -2.1201 1.53658
lowerneck -6.02902 0.55756 -1.58421
upperneck -7.76053 0.89562 1.74666
head -1.42017 0.467406 0.805666
lclavicle -2.44153e-15 1.85703e-14 0
lhumerus -19.2418 -12.8358 86.0265
lradius 113.79 0 0
lwrist 28.8627 0 0
lhand -38.1959 7.38148 0
lfingers 7.12502 0 0
lthumb -11.2282 37.0608 0
rclavicle -2.44153e-15 1.85703e-14 0
rhumerus -54.7637 7.29061 -83.7843
rradius 84.4219 0 0
rwrist -2.78056 0 0
rhand -44.1738 35.4134 0
rfingers 7.12502 0 0
rthumb -16.9885 6.13647 0
90
root 0.604584 17.9963 11.511 3.10903 5.06545 3.03528
lfemur 2.47811 -2.05449 -24.0757
ltibia 27.7502 0 0
lfoot -1.30295 -6.21325 0
ltoes -29.6532 0 0
rfemur -33.3423 -6.51735 19.8423
rtibia 90.512 0 0
rfoot 14.6248 -6.55211 0
rtoes 12.6154 0 0
lowerback 16.5328 -2.99985 -4.25704
upperback 1.05388 -4.96307 -1.68513
thorax -7.71348 -2.25454 1.76031
lowerneck -5.95867 0.60883 -1.61866
upperneck -7.81432 0.966206 1.76462
head -1.44967 0.5029 0.817988
lclavicle -2.13213e-15 1.94681e-14 0
lhumerus -17.5745 -13.1987 85.8435
lradius 114.163 0 0
lwrist 28.9731 0 0
lhand -38.223 7.24401 0
lfingers 7.12502 0 0
lthumb -11.2544 36.9219 0
rclavicle -2.13213e-15 1.94681e-14 0
rhumerus -55.7008 6.62855 -83.6194
rradius 83.404 0 0
rwrist -2.82188 0 0
rhand -44.1936 35.3832 0
rfingers 7.12502 0 0
rthumb -17.0075 6.10786 0
